<svg width="172" height="21" viewBox="0 0 172 21" fill="none" xmlns="http://www.w3.org/2000/svg">
<path fill-rule="evenodd" clip-rule="evenodd" d="M7.79154 1H0.0878906L0.0913607 19.8538H7.79501C9.89466 19.8543 11.6991 19.4793 13.2084 18.7288C14.7172 17.9783 15.8688 16.8927 16.6632 15.4718C17.4577 14.0509 17.8549 12.3605 17.8549 10.4005C17.8549 8.45913 17.4533 6.78214 16.65 5.36957C15.8468 3.95746 14.6901 2.87618 13.1799 2.12571C11.6697 1.37523 9.87361 1 7.79154 1ZM11.5676 14.5179C10.6589 15.427 9.28631 15.8816 7.44993 15.8816H5.06735V4.97227H7.44854C11.1037 4.97227 12.9313 6.78159 12.9313 10.4002C12.9309 12.2361 12.4763 13.6087 11.5676 14.5179Z" fill="black"/>
<path d="M18.7461 19.8538V1H32.1983V4.81366H23.5925V8.3615H31.6431V12.1745H23.5925V16.0409H32.1983V19.8538H18.7461Z" fill="black"/>
<path d="M49.1839 1H54.1885L45.609 19.8538H41.6635L33.084 1H38.2475L43.6762 13.6576L49.1839 1Z" fill="black"/>
<path d="M54.8711 19.8545H60.6433L64.8685 13.9921L62.0563 10.3242L54.8711 19.8545Z" fill="#FFCB05"/>
<path d="M62.0575 10.3235L64.8433 6.70417L60.7771 1H55.0312L62.0478 10.3214L62.0575 10.3235Z" fill="#FFCB05"/>
<path d="M70.2019 19.8538H76.0004L68.7979 10.3214L75.895 1H70.1221L63.168 10.3235L70.2019 19.8538Z" fill="black"/>
<path d="M88.5986 7.29053C88.5986 7.85596 88.3936 8.29688 87.9834 8.61328C87.5732 8.92969 87.0166 9.08789 86.3135 9.08789C85.5518 9.08789 84.9658 8.98975 84.5557 8.79346V8.07275C84.8193 8.18408 85.1064 8.27197 85.417 8.33643C85.7275 8.40088 86.0352 8.43311 86.3398 8.43311C86.8379 8.43311 87.2129 8.33936 87.4648 8.15186C87.7168 7.96143 87.8428 7.69775 87.8428 7.36084C87.8428 7.13818 87.7974 6.95654 87.7065 6.81592C87.6187 6.67236 87.4692 6.54053 87.2583 6.42041C87.0503 6.30029 86.7324 6.16406 86.3047 6.01172C85.707 5.79785 85.2793 5.54443 85.0215 5.25146C84.7666 4.9585 84.6392 4.57617 84.6392 4.10449C84.6392 3.60937 84.8252 3.21533 85.1973 2.92236C85.5693 2.62939 86.0615 2.48291 86.6738 2.48291C87.3125 2.48291 87.8999 2.6001 88.436 2.83447L88.2031 3.48486C87.6729 3.26221 87.1572 3.15088 86.6562 3.15088C86.2607 3.15088 85.9517 3.23584 85.729 3.40576C85.5063 3.57568 85.395 3.81152 85.395 4.11328C85.395 4.33594 85.436 4.51904 85.5181 4.6626C85.6001 4.80322 85.7378 4.93359 85.9312 5.05371C86.1274 5.1709 86.4263 5.30127 86.8276 5.44482C87.5015 5.68506 87.9644 5.94287 88.2163 6.21826C88.4712 6.49365 88.5986 6.85107 88.5986 7.29053ZM89.9126 9V2.5752H90.6597V9H89.9126ZM96.0518 7.29053C96.0518 7.85596 95.8467 8.29688 95.4365 8.61328C95.0264 8.92969 94.4697 9.08789 93.7666 9.08789C93.0049 9.08789 92.4189 8.98975 92.0088 8.79346V8.07275C92.2725 8.18408 92.5596 8.27197 92.8701 8.33643C93.1807 8.40088 93.4883 8.43311 93.793 8.43311C94.291 8.43311 94.666 8.33936 94.918 8.15186C95.1699 7.96143 95.2959 7.69775 95.2959 7.36084C95.2959 7.13818 95.2505 6.95654 95.1597 6.81592C95.0718 6.67236 94.9224 6.54053 94.7114 6.42041C94.5034 6.30029 94.1855 6.16406 93.7578 6.01172C93.1602 5.79785 92.7324 5.54443 92.4746 5.25146C92.2197 4.9585 92.0923 4.57617 92.0923 4.10449C92.0923 3.60937 92.2783 3.21533 92.6504 2.92236C93.0225 2.62939 93.5146 2.48291 94.127 2.48291C94.7656 2.48291 95.353 2.6001 95.8892 2.83447L95.6562 3.48486C95.126 3.26221 94.6104 3.15088 94.1094 3.15088C93.7139 3.15088 93.4048 3.23584 93.1821 3.40576C92.9595 3.57568 92.8481 3.81152 92.8481 4.11328C92.8481 4.33594 92.8892 4.51904 92.9712 4.6626C93.0532 4.80322 93.1909 4.93359 93.3843 5.05371C93.5806 5.1709 93.8794 5.30127 94.2808 5.44482C94.9546 5.68506 95.4175 5.94287 95.6694 6.21826C95.9243 6.49365 96.0518 6.85107 96.0518 7.29053ZM100.947 9H97.3657V2.5752H100.947V3.23877H98.1128V5.30859H100.776V5.96777H98.1128V8.33203H100.947V9ZM107.394 9H106.542L103.03 3.60791H102.995C103.042 4.24072 103.065 4.8208 103.065 5.34814V9H102.375V2.5752H103.219L106.722 7.94531H106.757C106.751 7.86621 106.738 7.61279 106.717 7.18506C106.697 6.75439 106.689 6.44678 106.695 6.26221V2.5752H107.394V9ZM112.786 7.29053C112.786 7.85596 112.581 8.29688 112.171 8.61328C111.761 8.92969 111.204 9.08789 110.501 9.08789C109.739 9.08789 109.153 8.98975 108.743 8.79346V8.07275C109.007 8.18408 109.294 8.27197 109.604 8.33643C109.915 8.40088 110.223 8.43311 110.527 8.43311C111.025 8.43311 111.4 8.33936 111.652 8.15186C111.904 7.96143 112.03 7.69775 112.03 7.36084C112.03 7.13818 111.985 6.95654 111.894 6.81592C111.806 6.67236 111.657 6.54053 111.446 6.42041C111.238 6.30029 110.92 6.16406 110.492 6.01172C109.895 5.79785 109.467 5.54443 109.209 5.25146C108.954 4.9585 108.827 4.57617 108.827 4.10449C108.827 3.60937 109.013 3.21533 109.385 2.92236C109.757 2.62939 110.249 2.48291 110.861 2.48291C111.5 2.48291 112.087 2.6001 112.624 2.83447L112.391 3.48486C111.86 3.26221 111.345 3.15088 110.844 3.15088C110.448 3.15088 110.139 3.23584 109.917 3.40576C109.694 3.57568 109.583 3.81152 109.583 4.11328C109.583 4.33594 109.624 4.51904 109.706 4.6626C109.788 4.80322 109.925 4.93359 110.119 5.05371C110.315 5.1709 110.614 5.30127 111.015 5.44482C111.689 5.68506 112.152 5.94287 112.404 6.21826C112.659 6.49365 112.786 6.85107 112.786 7.29053ZM117.682 9H114.1V2.5752H117.682V3.23877H114.847V5.30859H117.51V5.96777H114.847V8.33203H117.682V9ZM126.576 5.72607C126.576 6.78662 126.288 7.59814 125.71 8.16064C125.136 8.72021 124.309 9 123.228 9H121.448V2.5752H123.417C124.416 2.5752 125.192 2.85205 125.746 3.40576C126.299 3.95947 126.576 4.73291 126.576 5.72607ZM125.785 5.75244C125.785 4.91455 125.574 4.2832 125.152 3.8584C124.733 3.43359 124.109 3.22119 123.28 3.22119H122.195V8.354H123.104C123.995 8.354 124.665 8.13574 125.113 7.69922C125.561 7.25977 125.785 6.61084 125.785 5.75244ZM131.595 9H128.013V2.5752H131.595V3.23877H128.76V5.30859H131.423V5.96777H128.76V8.33203H131.595V9ZM136.692 2.5752H137.497L135.181 9H134.442L132.14 2.5752H132.931L134.407 6.73242C134.577 7.20996 134.712 7.67432 134.812 8.12549C134.917 7.65088 135.055 7.17773 135.225 6.70605L136.692 2.5752ZM141.966 9H138.384V2.5752H141.966V3.23877H139.131V5.30859H141.794V5.96777H139.131V8.33203H141.966V9ZM143.394 9V2.5752H144.141V8.32324H146.976V9H143.394ZM153.646 5.77881C153.646 6.80713 153.386 7.61572 152.864 8.20459C152.346 8.79346 151.624 9.08789 150.698 9.08789C149.751 9.08789 149.021 8.79932 148.505 8.22217C147.992 7.64209 147.736 6.82471 147.736 5.77002C147.736 4.72412 147.994 3.91406 148.509 3.33984C149.025 2.7627 149.757 2.47412 150.707 2.47412C151.629 2.47412 152.35 2.76709 152.869 3.35303C153.387 3.93896 153.646 4.74756 153.646 5.77881ZM148.527 5.77881C148.527 6.64893 148.711 7.30957 149.081 7.76074C149.453 8.20898 149.992 8.43311 150.698 8.43311C151.41 8.43311 151.947 8.20898 152.311 7.76074C152.674 7.3125 152.855 6.65186 152.855 5.77881C152.855 4.91455 152.674 4.25977 152.311 3.81445C151.95 3.36621 151.416 3.14209 150.707 3.14209C149.995 3.14209 149.453 3.36768 149.081 3.81885C148.711 4.26709 148.527 4.92041 148.527 5.77881ZM159.157 4.44727C159.157 5.09766 158.935 5.59863 158.489 5.9502C158.047 6.29883 157.413 6.47314 156.586 6.47314H155.831V9H155.083V2.5752H156.749C158.354 2.5752 159.157 3.19922 159.157 4.44727ZM155.831 5.83154H156.503C157.165 5.83154 157.644 5.72461 157.94 5.51074C158.236 5.29688 158.384 4.9541 158.384 4.48242C158.384 4.05762 158.245 3.74121 157.966 3.5332C157.688 3.3252 157.254 3.22119 156.666 3.22119H155.831V5.83154ZM164.088 9H160.506V2.5752H164.088V3.23877H161.253V5.30859H163.917V5.96777H161.253V8.33203H164.088V9ZM166.263 6.32812V9H165.516V2.5752H167.278C168.066 2.5752 168.648 2.72607 169.023 3.02783C169.401 3.32959 169.59 3.78369 169.59 4.39014C169.59 5.23975 169.159 5.81396 168.298 6.11279L170.042 9H169.159L167.604 6.32812H166.263ZM166.263 5.68652H167.287C167.814 5.68652 168.201 5.58252 168.447 5.37451C168.693 5.16357 168.816 4.84863 168.816 4.42969C168.816 4.00488 168.69 3.69873 168.438 3.51123C168.189 3.32373 167.788 3.22998 167.234 3.22998H166.263V5.68652ZM88.5547 19H84.9731V12.5752H88.5547V13.2388H85.7202V15.3086H88.3833V15.9678H85.7202V18.332H88.5547V19ZM94.2588 19H93.4106L91.6836 16.1743L89.9258 19H89.1348L91.2705 15.6426L89.2798 12.5752H90.106L91.7012 15.1196L93.3096 12.5752H94.105L92.1143 15.6162L94.2588 19ZM99.251 14.4473C99.251 15.0977 99.0283 15.5986 98.583 15.9502C98.1406 16.2988 97.5063 16.4731 96.6802 16.4731H95.9243V19H95.1772V12.5752H96.8428C98.4482 12.5752 99.251 13.1992 99.251 14.4473ZM95.9243 15.8315H96.5967C97.2588 15.8315 97.7378 15.7246 98.0337 15.5107C98.3296 15.2969 98.4775 14.9541 98.4775 14.4824C98.4775 14.0576 98.3384 13.7412 98.0601 13.5332C97.7817 13.3252 97.3481 13.2212 96.7593 13.2212H95.9243V15.8315ZM104.182 19H100.6V12.5752H104.182V13.2388H101.347V15.3086H104.01V15.9678H101.347V18.332H104.182V19ZM106.357 16.3281V19H105.61V12.5752H107.372C108.16 12.5752 108.742 12.7261 109.117 13.0278C109.495 13.3296 109.684 13.7837 109.684 14.3901C109.684 15.2397 109.253 15.814 108.392 16.1128L110.136 19H109.253L107.697 16.3281H106.357ZM106.357 15.6865H107.381C107.908 15.6865 108.295 15.5825 108.541 15.3745C108.787 15.1636 108.91 14.8486 108.91 14.4297C108.91 14.0049 108.784 13.6987 108.532 13.5112C108.283 13.3237 107.882 13.23 107.328 13.23H106.357V15.6865ZM111.173 19V12.5752H111.92V19H111.173ZM117.269 19H113.687V12.5752H117.269V13.2388H114.434V15.3086H117.097V15.9678H114.434V18.332H117.269V19ZM123.715 19H122.863L119.352 13.6079H119.316C119.363 14.2407 119.387 14.8208 119.387 15.3481V19H118.697V12.5752H119.541L123.043 17.9453H123.078C123.072 17.8662 123.059 17.6128 123.039 17.1851C123.018 16.7544 123.011 16.4468 123.017 16.2622V12.5752H123.715V19ZM128.233 13.1509C127.527 13.1509 126.969 13.3867 126.559 13.8584C126.151 14.3271 125.948 14.9702 125.948 15.7876C125.948 16.6284 126.144 17.2788 126.537 17.7388C126.932 18.1958 127.495 18.4243 128.224 18.4243C128.672 18.4243 129.184 18.3438 129.758 18.1826V18.8374C129.312 19.0044 128.763 19.0879 128.11 19.0879C127.164 19.0879 126.433 18.8008 125.917 18.2266C125.404 17.6523 125.148 16.8364 125.148 15.7788C125.148 15.1167 125.271 14.5366 125.517 14.0386C125.766 13.5405 126.124 13.1567 126.589 12.8872C127.058 12.6177 127.609 12.4829 128.242 12.4829C128.916 12.4829 129.504 12.606 130.008 12.8521L129.692 13.4937C129.206 13.2651 128.719 13.1509 128.233 13.1509ZM134.741 19H131.16V12.5752H134.741V13.2388H131.907V15.3086H134.57V15.9678H131.907V18.332H134.741V19Z" fill="black"/>
</svg>
