<svg class="" width="24" height="24" viewBox="0 0 24 24" aria-hidden="true" role="presentation" focusable="false" fill="#FFD537" xmlns="http://www.w3.org/2000/svg">
    <svg width="24" height="24" viewBox="0 0 24 24">
        <path fill-rule="evenodd" clip-rule="evenodd" d="M6 6C6 5.44772 6.44772 5 7 5H11C11.5523 5 12 5.44772 12 6L12 10C12 10.5523 11.5523 11 11 11L7 11C6.44772 11 6 10.5523 6 10V6ZM7 6L11 6L11 10L7 10L7 6Z"></path>
        <path fill-rule="evenodd" clip-rule="evenodd" d="M19 17C19 17.5523 18.5523 18 18 18H14C13.4477 18 13 17.5523 13 17L13 13C13 12.4477 13.4477 12 14 12L18 12C18.5523 12 19 12.4477 19 13V17ZM18 17H14L14 13H18V17Z"></path>
        <path d="M11 17H7L7 13H8L8 16H11V17Z"></path>
        <path d="M14 6H18V10H17L17 7H14V6Z"></path>
    </svg>
</svg>