<svg class="" focusable="false" width="24" height="24"  viewBox="0 0 24 24" fill="#FFD537" aria-hidden="true" role="presentation" xmlns="http://www.w3.org/2000/svg">
    <svg width="24" height="24" viewBox="0 0 24 24">
        <path d="M7 7.5C7 7.77614 6.77614 8 6.5 8C6.22386 8 6 7.77614 6 7.5C6 7.22386 6.22386 7 6.5 7C6.77614 7 7 7.22386 7 7.5Z"></path>
        <path d="M8.5 8C8.77614 8 9 7.77614 9 7.5C9 7.22386 8.77614 7 8.5 7C8.22386 7 8 7.22386 8 7.5C8 7.77614 8.22386 8 8.5 8Z"></path>
        <path d="M9.03483 11.6401C9.23361 11.8318 9.23936 12.1483 9.04768 12.3471L7.69485 13.75L9.04768 15.1529C9.23936 15.3517 9.23361 15.6682 9.03483 15.8599C8.83605 16.0516 8.51952 16.0458 8.32784 15.8471L6.30566 13.75L8.32784 11.6529C8.51952 11.4542 8.83605 11.4484 9.03483 11.6401Z"></path>
        <path d="M13.9533 12.3471C13.7616 12.1483 13.7674 11.8318 13.9662 11.6401C14.1649 11.4484 14.4815 11.4542 14.6731 11.6529L16.6953 13.75L14.6731 15.8471C14.4815 16.0458 14.1649 16.0516 13.9662 15.8599C13.7674 15.6682 13.7616 15.3517 13.9533 15.1529L15.3061 13.75L13.9533 12.3471Z"></path>
        <path d="M10.4112 11.8143C10.6519 11.6789 10.9567 11.7643 11.0921 12.005L12.7796 15.005C12.915 15.2456 12.8296 15.5505 12.589 15.6859C12.3483 15.8213 12.0434 15.7359 11.9081 15.4952L10.2206 12.4952C10.0852 12.2545 10.1705 11.9497 10.4112 11.8143Z"></path>
        <path fill-rule="evenodd" clip-rule="evenodd" d="M19 19H4V6C4 5.44772 4.44772 5 5 5H18C18.5523 5 19 5.44772 19 6V19ZM18 6H5V9H18V6ZM5 10V18H18V10H5Z"></path>
    </svg>
</svg>