<svg width="110" height="28" viewBox="0 0 110 28" fill="none" xmlns="http://www.w3.org/2000/svg">
<path d="M12.4093 7.18884H12.3911V12.7776H12.4093C13.5724 12.7776 14.6878 13.2397 15.5102 14.0621C16.3326 14.8844 16.7946 15.9999 16.7946 17.1629C16.7946 18.326 16.3326 19.4414 15.5102 20.2638C14.6878 21.0862 13.5724 21.5482 12.4093 21.5482H12.3911V27.1349H12.4093C13.7189 27.1349 15.0156 26.877 16.2255 26.3759C17.4353 25.8747 18.5346 25.1402 19.4606 24.2142C20.3866 23.2882 21.1212 22.1889 21.6223 20.979C22.1234 19.7692 22.3814 18.4725 22.3814 17.1629C22.3814 15.8534 22.1234 14.5566 21.6223 13.3468C21.1212 12.1369 20.3866 11.0376 19.4606 10.1116C18.5346 9.18562 17.4353 8.45108 16.2255 7.94994C15.0156 7.4488 13.7189 7.19087 12.4093 7.19087V7.18884Z" fill="#212322"/>
<path d="M9.97205 19.9442H9.99025V14.3614H9.97205C8.809 14.3614 7.69359 13.8994 6.87119 13.077C6.04879 12.2546 5.58677 11.1392 5.58677 9.97612C5.58677 8.81307 6.04879 7.69766 6.87119 6.87526C7.69359 6.05286 8.809 5.59084 9.97205 5.59084H9.99025V0H9.97205C7.3273 3.941e-08 4.79087 1.05063 2.92075 2.92075C1.05062 4.79088 0 7.32732 0 9.97208C0 12.6168 1.05062 15.1533 2.92075 17.0234C4.79087 18.8935 7.3273 19.9442 9.97205 19.9442Z" fill="#212322"/>
<path d="M39.2693 7.22919H42.4915V19.9238H39.2693V7.22919ZM42.4915 3.97463C42.4915 3.65458 42.3966 3.34172 42.2188 3.07561C42.0409 2.8095 41.7882 2.6021 41.4925 2.47962C41.1969 2.35715 40.8715 2.3251 40.5576 2.38754C40.2437 2.44998 39.9554 2.60409 39.7291 2.8304C39.5028 3.05671 39.3487 3.34504 39.2862 3.65893C39.2238 3.97283 39.2558 4.29819 39.3783 4.59388C39.5008 4.88956 39.7082 5.14229 39.9743 5.32009C40.2404 5.4979 40.5533 5.59281 40.8733 5.59281C41.3025 5.59281 41.714 5.42232 42.0175 5.11885C42.321 4.81538 42.4915 4.40379 42.4915 3.97463Z" fill="#212322"/>
<path d="M63.2648 7.14624C66.9179 7.14624 69.4058 9.88703 69.4058 13.8961V14.606H60.3035C60.5058 16.1554 61.7498 17.448 63.8312 17.448C64.972 17.448 66.3171 16.9928 67.1039 16.2343L68.5199 18.3157C67.3062 19.4322 65.3725 20.0168 63.463 20.0168C59.7331 20.0168 56.9175 17.5046 56.9175 13.5704C56.9215 10.0145 59.5349 7.14624 63.2648 7.14624ZM60.2449 12.4255H66.2847C66.2079 11.2584 65.3968 9.70903 63.2648 9.70903C61.2603 9.70903 60.3966 11.2058 60.2449 12.4255Z" fill="#212322"/>
<path d="M79.8431 12.2981C79.8431 10.597 78.9531 10.0145 77.5837 10.0145C77.0377 10.0205 76.5008 10.1544 76.016 10.4056C75.5312 10.6568 75.1121 11.0182 74.7923 11.4607V19.944H71.5701V7.22108H74.7923V9.04153C75.3291 8.43413 75.9911 7.9502 76.7327 7.62303C77.4744 7.29585 78.2781 7.13319 79.0886 7.14623C81.7788 7.14623 83.0734 8.66935 83.0734 11.0541V19.944H79.8431V12.2981Z" fill="#212322"/>
<path d="M103.859 7.14624C107.512 7.14624 110 9.88703 110 13.8961V14.606H100.898C101.1 16.1554 102.344 17.448 104.425 17.448C105.566 17.448 106.911 16.9928 107.698 16.2343L109.114 18.3157C107.901 19.4322 105.967 20.0168 104.057 20.0168C100.327 20.0168 97.5117 17.5046 97.5117 13.5704C97.5158 10.0145 100.125 7.14624 103.859 7.14624ZM100.839 12.4255H106.879C106.8 11.2584 105.991 9.70903 103.859 9.70903C101.855 9.70903 100.991 11.2058 100.839 12.4255Z" fill="#212322"/>
<path d="M27.7235 16.3598C28.3525 16.6935 30.1508 17.4601 31.6638 17.4601C32.8936 17.4601 33.5732 17.1223 33.5732 16.3598C33.5732 15.4981 32.7641 15.1219 31.3684 14.8427C29.2608 14.4382 26.4026 13.712 26.4026 10.7973C26.4026 8.74219 27.7922 7.19885 31.6617 7.19885C33.3872 7.20451 35.0771 7.68983 36.5426 8.6006L35.242 10.7851C34.1934 10.0523 32.947 9.65517 31.6678 9.64635C30.4319 9.64635 29.7442 10.0772 29.7462 10.7872C29.7462 11.574 30.4521 11.8491 31.6537 12.0271C33.7755 12.3426 36.9128 13.3216 36.9128 16.3679C36.9128 18.5929 35.0519 19.9501 31.6537 19.9501C29.5237 19.9501 27.4241 19.3089 26.3945 18.6192L27.7235 16.3598Z" fill="#212322"/>
<path d="M45.9483 16.3598C46.5754 16.6935 48.3756 17.4601 49.8886 17.4601C51.1164 17.4601 51.796 17.1223 51.796 16.3598C51.796 15.4981 50.9869 15.1219 49.5913 14.8427C47.4856 14.4382 44.6255 13.712 44.6255 10.7973C44.6255 8.74219 46.0151 7.19885 49.8846 7.19885C51.6101 7.20376 53.3002 7.68914 54.7654 8.6006L53.4648 10.7851C52.4164 10.0521 51.1699 9.65491 49.8906 9.64635C48.6547 9.64635 47.967 10.0772 47.969 10.7872C47.969 11.574 48.675 11.8491 49.8785 12.0271C51.9983 12.3426 55.1376 13.3216 55.1376 16.3679C55.1376 18.5929 53.2787 19.9501 49.8785 19.9501C47.7465 19.9501 45.649 19.3089 44.6194 18.6192L45.9483 16.3598Z" fill="#212322"/>
<path d="M86.5404 16.3598C87.1694 16.6935 88.9676 17.4601 90.4827 17.4601C91.7105 17.4601 92.3901 17.1223 92.3901 16.3598C92.3901 15.4981 91.581 15.1219 90.1853 14.8427C88.0797 14.4382 85.2195 13.712 85.2195 10.7973C85.2195 8.74219 86.6091 7.19885 90.4786 7.19885C92.2042 7.20376 93.8943 7.68914 95.3595 8.6006L94.0588 10.7851C93.0104 10.0521 91.764 9.65491 90.4847 9.64635C89.2488 9.64635 88.5611 10.0772 88.5631 10.7872C88.5631 11.574 89.269 11.8491 90.4705 12.0271C92.5924 12.3426 95.7296 13.3216 95.7296 16.3679C95.7296 18.5929 93.8707 19.9501 90.4705 19.9501C88.3406 19.9501 86.241 19.3089 85.2114 18.6192L86.5404 16.3598Z" fill="#212322"/>
</svg>
