<svg fill="#FFD537" xmlns="http://www.w3.org/2000/svg" class="" width="24" height="24" focusable="false" viewBox="0 0 24 24" aria-hidden="true" role="presentation">
    <svg width="24" height="24" viewBox="0 0 24 24">
        <path fill-rule="evenodd" clip-rule="evenodd" d="M7 6C6.44769 6 6 6.44772 6 7V13H12V6H7ZM11 7H7V12H11V7Z"></path>
        <path fill-rule="evenodd" clip-rule="evenodd" d="M19 7V11H13V6H18C18.5523 6 19 6.44772 19 7ZM18 10H14V7H18V10Z"></path>
        <path fill-rule="evenodd" clip-rule="evenodd" d="M19 18C19 18.5523 18.5523 19 18 19H13V12H19V18ZM18 18H14V13H18V18Z"></path>
        <path fill-rule="evenodd" clip-rule="evenodd" d="M6 18V14H12V19H7C6.44769 19 6 18.5523 6 18ZM7 15H11V18H7V15Z"></path>
    </svg>
</svg>
